<svg width="86px" height="17px" viewBox="0 0 86 17" version="1.1" xmlns="http://www.w3.org/2000/svg" xmlns:xlink="http://www.w3.org/1999/xlink">
    <defs>
        <polygon id="path-wid1dxdv31-1" points="0 7.10542736e-15 8.1186 7.10542736e-15 8.1186 10.984 0 10.984"></polygon>
        <polygon id="path-wid1dxdv31-3" points="0 0 10.316 0 10.316 8.3716 0 8.3716"></polygon>
    </defs>
    <g id="Page-3" stroke="none" stroke-width="1" fill="none" fill-rule="evenodd">
        <g id="BrandGuidelines2023-(1)" transform="translate(-60.000000, -751.000000)">
            <g id="Group-66" transform="translate(60.000000, 751.719000)">
                <g id="Group-60" transform="translate(77.606400, 2.220000)">
                    <mask id="mask-wid1dxdv31-2" fill="white">
                        <use xlink:href="#path-wid1dxdv31-1"></use>
                    </mask>
                    <g id="Clip-59"></g>
                    <path d="M1.799,6.033 L1.799,9.503 L4.059,9.503 C5.651,9.503 6.24,8.851 6.24,7.769 C6.24,6.67 5.508,6.033 3.916,6.033 L1.799,6.033 Z M1.799,1.48 L1.799,4.552 L3.582,4.552 C5.062,4.552 5.715,3.995 5.715,3.009 C5.715,2.005 5.174,1.48 3.693,1.48 L1.799,1.48 Z M0,10.984 L0,7.10542736e-15 L3.55,7.10542736e-15 C6.304,7.10542736e-15 7.593,0.987 7.593,2.96 C7.593,4.266 6.59,5.03 5.46,5.253 L5.46,5.301 C7.243,5.444 8.119,6.383 8.119,7.832 C8.119,9.822 6.733,10.984 4.027,10.984 L0,10.984 Z" id="Fill-58" fill="#231F20" mask="url(#mask-wid1dxdv31-2)"></path>
                </g>
                <polygon id="Fill-61" fill="#231F20" points="15.4243 6.22 12.4323 9.662 12.4323 3.327 0.0183 3.327 2.9183 7.10542736e-15 15.4243 7.10542736e-15"></polygon>
                <g id="Group-65" transform="translate(0.000000, 7.052400)">
                    <mask id="mask-wid1dxdv31-4" fill="white">
                        <use xlink:href="#path-wid1dxdv31-3"></use>
                    </mask>
                    <g id="Clip-64"></g>
                    <polygon id="Fill-63" fill="#231F20" mask="url(#mask-wid1dxdv31-4)" points="0 3.442 2.992 0 2.992 5.044 10.316 5.044 7.423 8.372 0 8.372"></polygon>
                </g>
            </g>
        </g>
    </g>
</svg>
